# xmcd
#
# Track frame offsets:
#	150
#	13902
#	29676
#	43626
#	61071
#	75260
#	88359
#	103539
#	118795
#	133146
#	145940
#	159391
#	173747
#	189713
#	205597
#	221755
#	236636
#	253242
#	267444
#
# Disc length: 3796 seconds
# Revision: 0
# Processed by: cddbd v1.5.2PL0 Copyright (c) Steve Scherf et al.
# Submitted via: dBpowerAMP V12.0
#
DISCID=160ed213
DTITLE=Various Artist - Country Radio August 2010
DYEAR=2010
DGENRE=Country
TTITLE0=Emerson Drive - That Kind Of Beautiful
TTITLE1=Carolyn Dawn Johnson - Let Me Introduce myself
TTITLE2=One More Girl - The Day I Fall
TTITLE3=Darius Rucker - Come Back Song
TTITLE4=George Canyon - Pretty Drunk Out Tonight
TTITLE5=Hey Romeo - That's What I Am
TTITLE6=Duanne Steele - Blessed
TTITLE7=Jennette McCurdy - Not That Far Away
TTITLE8=Dean Brody - Roll That Barrel Out
TTITLE9=Toby Keith - Trailerhood
TTITLE10=Kevin Fisher - Pound Sign
TTITLE11=Bomshel - Just Fine
TTITLE12=George Strait - The Breath You Take
TTITLE13=John Rich - Country Done Come To Town
TTITLE14=Jamie Warren - Letting Go
TTITLE15=Trace Adkins - This Ain't No Love Song
TTITLE16=Band Perry The - If I Die Young
TTITLE17=Miranda Lambert - Only Prettier
TTITLE18=Danny Gokey - I Will Not Say Goodbye
EXTD=
EXTT0=
EXTT1=
EXTT2=
EXTT3=
EXTT4=
EXTT5=
EXTT6=
EXTT7=
EXTT8=
EXTT9=
EXTT10=
EXTT11=
EXTT12=
EXTT13=
EXTT14=
EXTT15=
EXTT16=
EXTT17=
EXTT18=
PLAYORDER=
